<svg xmlns="http://www.w3.org/2000/svg" width="1200" height="420" viewBox="0 0 1200 420" role="img"><title>Youssef Ayman — AI and Machine Learning Engineer</title><defs><pattern id="dots" width="28" height="28" patternUnits="userSpaceOnUse"><circle cx="2" cy="2" r="1" fill="#293C54"/></pattern></defs><rect width="1200" height="420" rx="22" fill="#101C2D"/><rect width="1200" height="420" rx="22" fill="url(#dots)"/><path d="M0 414H1200" stroke="#FFAD87" stroke-width="12"/><g font-family="Segoe UI,Arial,sans-serif"><text x="62" y="77" font-size="21" fill="#FFAD87">Hello, world. I'm</text><text x="57" y="162" font-size="78" font-weight="750" letter-spacing="-3" fill="#F5F7FB">Youssef Ayman.</text><text x="63" y="214" font-size="26" fill="#AEC8E7">AI / Machine Learning Engineer</text><text x="63" y="287" font-size="22" fill="#F5F7FB">I build systems that understand,</text><text x="63" y="320" font-size="22" fill="#F5F7FB">see, and interact with the world.</text><text x="63" y="378" font-size="16" fill="#8FA4BD">Generative AI  /  Computer vision  /  Robotics</text></g><g transform="translate(910 205)"><circle r="142" fill="#15263C" stroke="#304760"/><circle r="163" fill="none" stroke="#304760" stroke-dasharray="3 13"/><path d="M-180 0h39M141 0h40M0-183v40M0 142v41" stroke="#7CAEE8" stroke-width="2"/><rect x="-83" y="-71" width="166" height="129" rx="34" fill="#AEC8E7"/><rect x="-65" y="-49" width="130" height="78" rx="24" fill="#101C2D"/><g fill="#FFAD87"><rect x="-43" y="-25" width="25" height="23" rx="10"/><rect x="18" y="-25" width="25" height="23" rx="10"/></g><path d="M-18 12q18 13 36 0" fill="none" stroke="#7CAEE8" stroke-width="4" stroke-linecap="round"/><path d="M0-71v-27" stroke="#AEC8E7" stroke-width="7"/><circle cy="-107" r="9" fill="#FFAD87"><animate attributeName="opacity" values="1;.35;1" dur="3s" repeatCount="indefinite"/></circle><rect x="-45" y="76" width="90" height="20" rx="10" fill="#7CAEE8"/><circle cx="121" cy="-112" r="8" fill="#FFAD87"/><circle cx="-126" cy="105" r="6" fill="#7CAEE8"/></g></svg>
