<svg xmlns="http://www.w3.org/2000/svg" width="640" height="310" viewBox="0 0 640 310" role="img"><title>Drowsiness detection — project illustration</title><rect width="640" height="310" rx="16" fill="#101C2D"/><circle cx="530" cy="80" r="145" fill="#8EBFFF" opacity=".07"/><g transform="translate(360 25)"><path d="M4 90Q120-30 236 90Q120 210 4 90Z" fill="#1C324C" stroke="#8EBFFF" stroke-width="3"/><circle cx="120" cy="90" r="42" fill="#8EBFFF"/><circle cx="120" cy="90" r="22" fill="#101C2D"/><circle cx="132" cy="78" r="7" fill="#F5F7FB"/><path d="M0 165h42l13-16 17 29 18-27 17 14h130" fill="none" stroke="#FFAD87" stroke-width="3"/><path d="M0 20v-12h26M213 8h26v18M0 143v-12M239 143v-12" fill="none" stroke="#8EBFFF" stroke-width="3"/></g><g font-family="Segoe UI,Arial,sans-serif"><text x="30" y="45" font-size="16" fill="#8EBFFF">Vision + real-time signals</text><text x="30" y="249" font-size="31" font-weight="700" fill="#F5F7FB">Drowsiness detection</text><path d="M30 272h55" stroke="#8EBFFF" stroke-width="4" stroke-linecap="round"/></g></svg>
